<mxfile host="app.diagrams.net" modified="2024-01-15T02:55:03.710Z" agent="Mozilla/5.0 (Macintosh; Intel Mac OS X 10_15_7) AppleWebKit/537.36 (KHTML, like Gecko) Chrome/119.0.0.0 Safari/537.36" version="22.1.18" etag="fZE6uPH3fexmm3VXKo-3" type="github">
  <diagram name="Page-1" id="Hgtl0b86P4oJVVMEaIW8">
    <mxGraphModel>
      <root>
        <mxCell id="0" />
        <mxCell id="1" parent="0" />
      </root>
    </mxGraphModel>
  </diagram>
</mxfile>
